<svg xmlns="http://www.w3.org/2000/svg" xmlns:xlink="http://www.w3.org/1999/xlink" width="28" height="28" viewBox="0 0 28 28">
  <defs>
    <clipPath id="clip-path">
      <rect id="Rectangle_1978" data-name="Rectangle 1978" width="28" height="28" transform="translate(-836 591)" fill="#fff"/>
    </clipPath>
  </defs>
  <g id="Mask_Group_76" data-name="Mask Group 76" transform="translate(836 -591)" clip-path="url(#clip-path)">
    <g id="back" transform="translate(-834 598)">
      <path id="back-2" data-name="back" d="M21.048,6.023H3.251L7.5,1.667A.994.994,0,0,0,7.5.286a.935.935,0,0,0-1.347,0L.279,6.309a.994.994,0,0,0,0,1.381l5.872,6.023a.935.935,0,0,0,1.347,0,.994.994,0,0,0,0-1.381L3.251,7.977h17.8a.977.977,0,0,0,0-1.953Z" fill="#757575"/>
    </g>
  </g>
</svg>
