<svg xmlns="http://www.w3.org/2000/svg" xmlns:xlink="http://www.w3.org/1999/xlink" width="24" height="24" viewBox="0 0 24 24">
  <defs>
    <clipPath id="clip-path">
      <rect id="Rectangle_1967" data-name="Rectangle 1967" width="24" height="24" transform="translate(35 355)" fill="#757575" opacity="0.5"/>
    </clipPath>
  </defs>
  <g id="Mask_Group_66" data-name="Mask Group 66" transform="translate(-35 -355)" clip-path="url(#clip-path)">
    <g id="paper" transform="translate(38 358)">
      <g id="Group_4497" data-name="Group 4497" transform="translate(0 0)">
        <g id="Group_4496" data-name="Group 4496">
          <path id="Path_10123" data-name="Path 10123" d="M20.59.2a.7.7,0,0,0-.759-.151L2.327,7.19A.7.7,0,0,0,2.1,8.337L12.627,18.844a.7.7,0,0,0,1.149-.239L20.75.96A.7.7,0,0,0,20.59.2ZM12.863,17.1,3.838,8.09l15-6.117Z" transform="translate(-1.89 0)" fill="#0076ff"/>
        </g>
      </g>
      <g id="Group_4499" data-name="Group 4499" transform="translate(5.467 0.231)">
        <g id="Group_4498" data-name="Group 4498" transform="translate(0 0)">
          <rect id="Rectangle_1966" data-name="Rectangle 1966" width="17.343" height="1.404" transform="translate(0 12.357) rotate(-45.438)" fill="#0076ff"/>
        </g>
      </g>
      <g id="Group_4501" data-name="Group 4501" transform="translate(3.627 11.42)">
        <g id="Group_4500" data-name="Group 4500">
          <path id="Path_10124" data-name="Path 10124" d="M102.726,309.538l-1.934,1.788v-4.385h-1.4v5.991a.7.7,0,0,0,1.179.515l3.112-2.879Z" transform="translate(-99.388 -306.941)" fill="#0076ff"/>
        </g>
      </g>
    </g>
  </g>
</svg>
