<svg xmlns="http://www.w3.org/2000/svg" xmlns:xlink="http://www.w3.org/1999/xlink" width="24" height="24" viewBox="0 0 24 24">
  <defs>
    <clipPath id="clip-path">
      <rect id="Rectangle_1973" data-name="Rectangle 1973" width="24" height="24" transform="translate(-987 593)" fill="#fff"/>
    </clipPath>
  </defs>
  <g id="Mask_Group_72" data-name="Mask Group 72" transform="translate(987 -593)" clip-path="url(#clip-path)">
    <path id="pause-circle_major_monotone" d="M10,0A10,10,0,1,0,20,10,10.011,10.011,0,0,0,10,0m0,18a8,8,0,1,1,8-8,8.009,8.009,0,0,1-8,8M8,6A1,1,0,0,0,7,7v6a1,1,0,0,0,2,0V7A1,1,0,0,0,8,6m4,0a1,1,0,0,0-1,1v6a1,1,0,0,0,2,0V7a1,1,0,0,0-1-1" transform="translate(-985 595)" fill="#757575"/>
  </g>
</svg>
