<svg xmlns="http://www.w3.org/2000/svg" xmlns:xlink="http://www.w3.org/1999/xlink" width="24" height="24" viewBox="0 0 24 24">
  <defs>
    <clipPath id="clip-path">
      <rect id="Rectangle_2001" data-name="Rectangle 2001" width="24" height="24" transform="translate(-587 659)" fill="#fff"/>
    </clipPath>
  </defs>
  <g id="Mask_Group_88" data-name="Mask Group 88" transform="translate(587 -659)" clip-path="url(#clip-path)">
    <path id="Path_10083" data-name="Path 10083" d="M13.633-8.32h2.813A8.68,8.68,0,0,0,16.68-10a8.68,8.68,0,0,0-.234-1.68H13.633A11.864,11.864,0,0,1,13.75-10,11.864,11.864,0,0,1,13.633-8.32ZM12.148-3.711A6.32,6.32,0,0,0,15.781-6.68H13.32A12.159,12.159,0,0,1,12.148-3.711Zm-.2-4.609A11.864,11.864,0,0,0,12.07-10a11.864,11.864,0,0,0-.117-1.68H8.047A11.864,11.864,0,0,0,7.93-10a11.864,11.864,0,0,0,.117,1.68ZM10-3.359a11.81,11.81,0,0,0,1.6-3.32H8.4A11.81,11.81,0,0,0,10-3.359ZM6.68-13.32a12.159,12.159,0,0,1,1.172-2.969A6.32,6.32,0,0,0,4.219-13.32ZM4.219-6.68A6.32,6.32,0,0,0,7.852-3.711,12.159,12.159,0,0,1,6.68-6.68ZM3.555-8.32H6.367A11.864,11.864,0,0,1,6.25-10a11.864,11.864,0,0,1,.117-1.68H3.555A8.68,8.68,0,0,0,3.32-10,8.68,8.68,0,0,0,3.555-8.32ZM10-16.641a11.81,11.81,0,0,0-1.6,3.32h3.2A11.81,11.81,0,0,0,10-16.641Zm5.781,3.32a6.32,6.32,0,0,0-3.633-2.969A12.159,12.159,0,0,1,13.32-13.32ZM4.1-15.859A8.046,8.046,0,0,1,10-18.32a8.014,8.014,0,0,1,5.879,2.441A8.014,8.014,0,0,1,18.32-10a8.014,8.014,0,0,1-2.441,5.879A8.014,8.014,0,0,1,10-1.68,8.014,8.014,0,0,1,4.121-4.121,8.014,8.014,0,0,1,1.68-10,7.982,7.982,0,0,1,4.1-15.859Z" transform="translate(-584.68 681.32)" fill="#40b449"/>
  </g>
</svg>
