<svg xmlns="http://www.w3.org/2000/svg" xmlns:xlink="http://www.w3.org/1999/xlink" width="24" height="24" viewBox="0 0 24 24">
  <defs>
    <clipPath id="clip-path">
      <rect id="Rectangle_1969" data-name="Rectangle 1969" width="24" height="24" transform="translate(199 438)" fill="#fff"/>
    </clipPath>
  </defs>
  <g id="Mask_Group_68" data-name="Mask Group 68" transform="translate(-199 -438)" clip-path="url(#clip-path)">
    <g id="Group_4508" data-name="Group 4508" transform="translate(-25.276 -45)">
      <path id="Path_10128" data-name="Path 10128" d="M63.5,4.946,58.717.163A.558.558,0,0,0,58.322,0h-8.07A2.055,2.055,0,0,0,48.2,2.053V17a2.055,2.055,0,0,0,2.052,2.053H61.61A2.055,2.055,0,0,0,63.663,17V5.34A.558.558,0,0,0,63.5,4.946Zm-4.619-3.04,2.877,2.877h-1.94a.937.937,0,0,1-.936-.936Zm2.73,16.028H50.252A.937.937,0,0,1,49.316,17V2.053a.937.937,0,0,1,.936-.936h7.512v2.73A2.055,2.055,0,0,0,59.817,5.9h2.73V17A.937.937,0,0,1,61.61,17.933Z" transform="translate(180.076 485)" fill="#40b449"/>
      <path id="Path_10129" data-name="Path 10129" d="M133.688,192.8a5.155,5.155,0,1,0,5.155,5.155A5.161,5.161,0,0,0,133.688,192.8Zm0,9.1a3.942,3.942,0,1,1,3.942-3.942A3.947,3.947,0,0,1,133.688,201.9Z" transform="translate(102.319 298.96)" fill="#40b449"/>
      <path id="Path_10130" data-name="Path 10130" d="M211.111,282.8l-2.014,2.014-.7-.7a.867.867,0,0,0-1.226,1.226l1.314,1.314a.867.867,0,0,0,1.226,0l2.627-2.627a.867.867,0,0,0-1.227-1.227Z" transform="translate(26.253 212.189)" fill="#40b449"/>
    </g>
  </g>
</svg>
