<svg xmlns="http://www.w3.org/2000/svg" xmlns:xlink="http://www.w3.org/1999/xlink" width="24" height="24" viewBox="0 0 24 24">
  <defs>
    <clipPath id="clip-path">
      <rect id="Rectangle_1961" data-name="Rectangle 1961" width="24" height="24" transform="translate(35 355)" fill="#757575" opacity="0.5"/>
    </clipPath>
  </defs>
  <g id="Mask_Group_62" data-name="Mask Group 62" transform="translate(-35 -355)" clip-path="url(#clip-path)">
    <g id="maps-and-flags" transform="translate(40 358)">
      <g id="Group_4491" data-name="Group 4491" transform="translate(0)">
        <g id="Group_4490" data-name="Group 4490" transform="translate(0)">
          <path id="Path_10106" data-name="Path 10106" d="M77.363,0a6.8,6.8,0,0,0-6.79,6.79c0,4.647,6.077,11.468,6.335,11.756a.612.612,0,0,0,.91,0c.259-.288,6.335-7.11,6.335-11.756A6.8,6.8,0,0,0,77.363,0Zm0,17.2C75.318,14.772,71.8,9.979,71.8,6.79a5.568,5.568,0,1,1,11.135,0C82.931,9.98,79.409,14.772,77.363,17.2Z" transform="translate(-70.573)" fill="#757575" stroke="#707070" stroke-width="0.4"/>
        </g>
      </g>
      <g id="Group_4493" data-name="Group 4493" transform="translate(3.374 3.374)">
        <g id="Group_4492" data-name="Group 4492" transform="translate(0)">
          <path id="Path_10107" data-name="Path 10107" d="M166.124,92.134a3.416,3.416,0,1,0,3.416,3.416A3.42,3.42,0,0,0,166.124,92.134Zm0,5.61a2.194,2.194,0,1,1,2.194-2.194A2.2,2.2,0,0,1,166.124,97.744Z" transform="translate(-162.708 -92.134)" fill="#757575" stroke="#707070" stroke-width="0.4"/>
        </g>
      </g>
    </g>
  </g>
</svg>
