<svg xmlns="http://www.w3.org/2000/svg" xmlns:xlink="http://www.w3.org/1999/xlink" width="24" height="24" viewBox="0 0 24 24">
  <defs>
    <clipPath id="clip-path">
      <rect id="Rectangle_1962" data-name="Rectangle 1962" width="24" height="24" transform="translate(35 355)" fill="#757575" opacity="0.5"/>
    </clipPath>
  </defs>
  <g id="Mask_Group_63" data-name="Mask Group 63" transform="translate(-35 -355)" clip-path="url(#clip-path)">
    <path id="archive" d="M5.348,18.021a.732.732,0,0,1-.733.733H2.93A2.933,2.933,0,0,1,0,15.823V2.93A2.933,2.933,0,0,1,2.93,0h9.006a2.934,2.934,0,0,1,2.93,2.93V7.289a.733.733,0,0,1-1.465,0V2.93a1.467,1.467,0,0,0-1.465-1.465H2.93A1.467,1.467,0,0,0,1.465,2.93V15.823A1.467,1.467,0,0,0,2.93,17.288H4.615A.732.732,0,0,1,5.348,18.021ZM11.936,5.128A.732.732,0,0,0,11.2,4.4H3.659a.733.733,0,0,0,0,1.465H11.2A.732.732,0,0,0,11.936,5.128ZM9.01,8.058a.732.732,0,0,0-.733-.733H3.659a.733.733,0,0,0,0,1.465H8.278A.732.732,0,0,0,9.01,8.058Zm-5.352,2.2a.733.733,0,0,0,0,1.465H6.7a.733.733,0,0,0,0-1.465Zm12.78,7.953a1.467,1.467,0,0,1-1.141.545H8.144A1.481,1.481,0,0,1,6.7,16.968a5.137,5.137,0,0,1,2.879-3.62,2.857,2.857,0,1,1,4.288,0,5.1,5.1,0,0,1,1.114.7,5.163,5.163,0,0,1,1.75,2.853c.006.019.011.039.015.059A1.493,1.493,0,0,1,16.439,18.208Zm-6.11-6.745a1.392,1.392,0,1,0,1.392-1.392A1.393,1.393,0,0,0,10.329,11.463Zm4.981,5.8h0a3.664,3.664,0,0,0-7.178,0,.019.019,0,0,0,.008.022H15.3A.035.035,0,0,0,15.31,17.267Zm0,0" transform="translate(39 357.785)" fill="#757575"/>
  </g>
</svg>
