<svg xmlns="http://www.w3.org/2000/svg" xmlns:xlink="http://www.w3.org/1999/xlink" width="24" height="24" viewBox="0 0 24 24">
  <defs>
    <clipPath id="clip-path">
      <rect id="Rectangle_1989" data-name="Rectangle 1989" width="24" height="24" transform="translate(-497 593)" fill="#fff"/>
    </clipPath>
  </defs>
  <g id="Mask_Group_85" data-name="Mask Group 85" transform="translate(497 -593)" clip-path="url(#clip-path)">
    <path id="filter_major_monotone" d="M.8,3.2H3.348a2.385,2.385,0,0,0,4.5,0H15.2a.8.8,0,1,0,0-1.6H7.852a2.385,2.385,0,0,0-4.5,0H.8a.8.8,0,1,0,0,1.6m14.4,9.6H7.852a2.385,2.385,0,0,0-4.5,0H.8a.8.8,0,0,0,0,1.6H3.348a2.385,2.385,0,0,0,4.5,0H15.2a.8.8,0,1,0,0-1.6m0-5.6H12.652a2.385,2.385,0,0,0-4.5,0H.8a.8.8,0,1,0,0,1.6H8.148a2.385,2.385,0,0,0,4.5,0H15.2a.8.8,0,1,0,0-1.6M5.6,1.6a.8.8,0,1,1-.8.8.8.8,0,0,1,.8-.8m0,12.8a.8.8,0,1,1,.8-.8.8.8,0,0,1-.8.8m4.8-5.6a.8.8,0,1,1,.8-.8.8.8,0,0,1-.8.8" transform="translate(-493 597)" fill="#757575"/>
  </g>
</svg>
