<svg xmlns="http://www.w3.org/2000/svg" xmlns:xlink="http://www.w3.org/1999/xlink" width="24" height="24" viewBox="0 0 24 24">
  <defs>
    <clipPath id="clip-path">
      <rect id="Rectangle_1981" data-name="Rectangle 1981" width="24" height="24" transform="translate(-748 593)" fill="#fff"/>
    </clipPath>
    <clipPath id="clip-path-2">
      <rect id="Rectangle_1964" data-name="Rectangle 1964" width="20" height="20" transform="translate(4913 1375)" fill="#eee"/>
    </clipPath>
  </defs>
  <g id="Mask_Group_78" data-name="Mask Group 78" transform="translate(748 -593)" clip-path="url(#clip-path)">
    <g id="Mask_Group_65" data-name="Mask Group 65" transform="translate(-5659 -780)" clip-path="url(#clip-path-2)">
      <path id="mobile-cancel_major_monotone" d="M11.414,10l6.293-6.293a1,1,0,1,0-1.414-1.414L10,8.586,3.707,2.293A1,1,0,1,0,2.293,3.707L8.586,10,2.293,16.293a1,1,0,0,0,1.414,1.414L10,11.414l6.293,6.293a1,1,0,1,0,1.414-1.414Z" transform="translate(4913 1375)" fill="#333" fill-rule="evenodd"/>
    </g>
  </g>
</svg>
