<svg xmlns="http://www.w3.org/2000/svg" xmlns:xlink="http://www.w3.org/1999/xlink" width="24" height="24" viewBox="0 0 24 24">
  <defs>
    <clipPath id="clip-path">
      <rect id="Rectangle_1997" data-name="Rectangle 1997" width="24" height="24" transform="translate(-696 659)" fill="#fff"/>
    </clipPath>
  </defs>
  <g id="Mask_Group_91" data-name="Mask Group 91" transform="translate(696 -659)" clip-path="url(#clip-path)">
    <path id="Path_10086" data-name="Path 10086" d="M8.516-11.016A2.1,2.1,0,0,0,10-10.43a2,2,0,0,0,1.465-.605A2,2,0,0,0,12.07-12.5a2,2,0,0,0-.605-1.465A2,2,0,0,0,10-14.57a2,2,0,0,0-1.465.605A2,2,0,0,0,7.93-12.5,2.1,2.1,0,0,0,8.516-11.016ZM5.859-16.6A5.644,5.644,0,0,1,10-18.32a5.612,5.612,0,0,1,4.121,1.7,5.612,5.612,0,0,1,1.7,4.121,7.812,7.812,0,0,1-.605,2.773A17.1,17.1,0,0,1,13.75-6.8q-.859,1.367-1.7,2.559T10.625-2.344L10-1.68q-.234-.273-.625-.723T7.969-4.2A30.106,30.106,0,0,1,6.191-6.816,19.008,19.008,0,0,1,4.8-9.687,7.9,7.9,0,0,1,4.18-12.5,5.58,5.58,0,0,1,5.859-16.6Z" transform="translate(-694.18 681.32)" fill="#40b449"/>
  </g>
</svg>
