<svg xmlns="http://www.w3.org/2000/svg" xmlns:xlink="http://www.w3.org/1999/xlink" width="24" height="24" viewBox="0 0 24 24">
  <defs>
    <clipPath id="clip-path">
      <rect id="Rectangle_1994" data-name="Rectangle 1994" width="24" height="24" transform="translate(-908 659)" fill="#fff"/>
    </clipPath>
  </defs>
  <g id="Mask_Group_95" data-name="Mask Group 95" transform="translate(908 -659)" clip-path="url(#clip-path)">
    <path id="Subtraction_15" data-name="Subtraction 15" d="M8,16a8,8,0,1,1,8-8A8.009,8.009,0,0,1,8,16ZM5,7a1,1,0,0,0-.707,1.707l2,2a1,1,0,0,0,1.414,0l4-4a1,1,0,0,0-1.415-1.414L7,8.586,5.707,7.293A.993.993,0,0,0,5,7Z" transform="translate(-904 663)" fill="#40b449"/>
  </g>
</svg>
