<svg xmlns="http://www.w3.org/2000/svg" xmlns:xlink="http://www.w3.org/1999/xlink" width="24" height="24" viewBox="0 0 24 24">
  <defs>
    <clipPath id="clip-path">
      <rect id="Rectangle_1970" data-name="Rectangle 1970" width="24" height="24" transform="translate(254 503)" fill="#fff"/>
    </clipPath>
  </defs>
  <g id="Mask_Group_69" data-name="Mask Group 69" transform="translate(-254 -503)" clip-path="url(#clip-path)">
    <g id="Group_4509" data-name="Group 4509" transform="translate(-80.849 -7)">
      <g id="business" transform="translate(338.849 512)">
        <path id="Path_10131" data-name="Path 10131" d="M63.5,4.946,58.717.163A.558.558,0,0,0,58.322,0h-8.07A2.055,2.055,0,0,0,48.2,2.053V17a2.055,2.055,0,0,0,2.053,2.053H61.61A2.055,2.055,0,0,0,63.663,17V5.34A.558.558,0,0,0,63.5,4.946ZM58.88,1.905l2.877,2.877h-1.94a.937.937,0,0,1-.936-.936Zm2.73,16.028H50.253A.937.937,0,0,1,49.316,17V2.053a.937.937,0,0,1,.936-.936h7.512v2.73A2.055,2.055,0,0,0,59.817,5.9h2.73V17a.937.937,0,0,1-.936.936Z" transform="translate(-48.2 0)" fill="#ff0f0f"/>
        <path id="Path_10132" data-name="Path 10132" d="M133.838,192.8a5.3,5.3,0,1,0,5.3,5.3A5.311,5.311,0,0,0,133.838,192.8Zm0,9.361a4.056,4.056,0,1,1,4.056-4.056A4.061,4.061,0,0,1,133.838,202.161Z" transform="translate(-126.106 -186.189)" fill="#ff0f0f"/>
        <path id="Path_10133" data-name="Path 10133" d="M211.436,271.4a.723.723,0,0,0-1.022,0l-1.131,1.131-1.131-1.131a.723.723,0,0,0-1.022,1.022l1.131,1.131-1.131,1.131a.723.723,0,0,0,1.022,1.022l1.131-1.131,1.131,1.131a.723.723,0,1,0,1.022-1.022L210.3,273.55l1.131-1.131A.723.723,0,0,0,211.436,271.4Z" transform="translate(-201.551 -261.634)" fill="#ff0f0f"/>
      </g>
    </g>
  </g>
</svg>
