<svg xmlns="http://www.w3.org/2000/svg" xmlns:xlink="http://www.w3.org/1999/xlink" width="24" height="24" viewBox="0 0 24 24">
  <defs>
    <clipPath id="clip-path">
      <rect id="Rectangle_1992" data-name="Rectangle 1992" width="24" height="24" transform="translate(-987 659)" fill="#fff"/>
    </clipPath>
  </defs>
  <g id="Mask_Group_97" data-name="Mask Group 97" transform="translate(987 -659)" clip-path="url(#clip-path)">
    <g id="archive-24px" transform="translate(-985 661)">
      <path id="Path_158" data-name="Path 158" d="M16.642,4.734,15.561,3.428A1.129,1.129,0,0,0,14.667,3H5.333a1.156,1.156,0,0,0-.9.428L3.358,4.734A1.523,1.523,0,0,0,3,5.722v9.722A1.56,1.56,0,0,0,4.556,17H15.444A1.56,1.56,0,0,0,17,15.444V5.722A1.523,1.523,0,0,0,16.642,4.734ZM10,14.278,5.722,10H8.444V8.444h3.111V10h2.722ZM4.649,4.556l.63-.778h9.333l.731.778Z" transform="translate(0 0)" fill="#40b449"/>
      <path id="Path_159" data-name="Path 159" d="M0,0H20V20H0Z" fill="none"/>
    </g>
  </g>
</svg>
