<svg xmlns="http://www.w3.org/2000/svg" width="26.979" height="23.551" viewBox="0 0 26.979 23.551">
  <path id="_015-skype" data-name="015-skype" d="M25.891,39.3a3.466,3.466,0,0,1-.626-2.044s0-.008,0-.013A11.78,11.78,0,0,0,9.441,26.184a3.472,3.472,0,0,1-2.131.1,5.751,5.751,0,0,0-6.222,8.9,3.465,3.465,0,0,1,.626,2.044v.013A11.78,11.78,0,0,0,17.538,48.3a3.472,3.472,0,0,1,2.131-.1,5.751,5.751,0,0,0,6.222-8.9Zm-11.97-4.168c2.374.565,5.962,1.418,5.962,5.37a4.306,4.306,0,0,1-2.7,4.182,9.811,9.811,0,0,1-3.86.607,8.518,8.518,0,0,1-6.174-3.019,1.771,1.771,0,0,1,2.77-2.209,5.253,5.253,0,0,0,3.4,1.685c2.4.076,2.947-.638,3.018-1.247.087-.744-.575-1.29-3.24-1.924-2.258-.537-5.672-1.349-5.672-4.989,0-1.133.461-4.832,6.393-4.832a8.02,8.02,0,0,1,6.049,3.075,1.771,1.771,0,0,1-2.846,2.109,5.32,5.32,0,0,0-3.2-1.642c-1.435-.136-2.851.381-2.851,1.145C10.972,34.256,11.379,34.528,13.921,35.133Z" transform="translate(0 -25.468)" fill="#00aaf2"/>
</svg>
