<svg xmlns="http://www.w3.org/2000/svg" width="16.028" height="19.746" viewBox="0 0 16.028 19.746">
  <path id="Subtraction_14" data-name="Subtraction 14" d="M-828.1-2465.254h-11.773a2.13,2.13,0,0,1-2.128-2.128v-15.491a2.13,2.13,0,0,1,2.128-2.128h8.365a.582.582,0,0,1,.409.169l4.957,4.957a.578.578,0,0,1,.169.409v12.083A2.13,2.13,0,0,1-828.1-2465.254Zm-8.841-5.127c-.309,0-.56.361-.56.8s.251.806.56.806h6.431c.308,0,.559-.362.559-.806s-.251-.8-.559-.8Zm.384-5.562a.938.938,0,0,0-.667.275.941.941,0,0,0-.277.668.933.933,0,0,0,.277.666l1.887,1.888a.93.93,0,0,0,.667.276.935.935,0,0,0,.668-.276l3.775-3.774a.939.939,0,0,0,.277-.669.936.936,0,0,0-.277-.666.936.936,0,0,0-.667-.277.936.936,0,0,0-.667.277l-3.109,3.107-1.22-1.22A.939.939,0,0,0-836.556-2475.943Zm5.628-7.081h0v2.01a.971.971,0,0,0,.97.97h2.012Z" transform="translate(842 2485)" fill="#40b449"/>
</svg>
