<svg xmlns="http://www.w3.org/2000/svg" width="20" height="20" viewBox="0 0 20 20">
  <path id="Subtraction_16" data-name="Subtraction 16" d="M10,20A10,10,0,1,1,20,10,10.011,10.011,0,0,1,10,20ZM2.012,10.429h0a8,8,0,0,0,15.982-.075A7.941,7.941,0,0,1,15.6,15.7,10.693,10.693,0,0,0,10,14a10.719,10.719,0,0,0-5.6,1.7A7.971,7.971,0,0,1,2.012,10.429ZM10,4a4,4,0,1,0,4,4A4,4,0,0,0,10,4Zm0-2A8.009,8.009,0,0,0,2,9.974,8.01,8.01,0,0,1,10,2ZM15.952,4.66a7.972,7.972,0,0,1,2,4.474A7.935,7.935,0,0,0,15.952,4.66ZM10.02,2a7.969,7.969,0,0,1,5.393,2.114A7.938,7.938,0,0,0,10.02,2Z" fill="#40b449"/>
</svg>
