<svg xmlns="http://www.w3.org/2000/svg" width="16.428" height="20.146" viewBox="0 0 16.428 20.146">
  <g id="symbol-3" transform="translate(-0.8 0.2)">
    <path id="Path_10089" data-name="Path 10089" d="M64.059,5.126,59.1.169A.578.578,0,0,0,58.693,0H50.328A2.13,2.13,0,0,0,48.2,2.128V17.618a2.13,2.13,0,0,0,2.128,2.128H62.1a2.13,2.13,0,0,0,2.128-2.128V5.536a.578.578,0,0,0-.169-.409ZM59.271,1.975l2.982,2.982H60.242a.972.972,0,0,1-.971-.971ZM62.1,18.589H50.328a.972.972,0,0,1-.971-.971V2.128a.972.972,0,0,1,.971-.971h7.787V3.986a2.13,2.13,0,0,0,2.128,2.128h2.829v11.5A.972.972,0,0,1,62.1,18.589Z" transform="translate(-47.2 0)" fill="#989898" stroke="#989898" stroke-width="0.4"/>
    <path id="Path_10092" data-name="Path 10092" d="M205.539,339.626h-6.432c-.309,0-.559.36-.559.805s.25.8.559.8h6.432c.309,0,.559-.36.559-.8S205.848,339.626,205.539,339.626Z" transform="translate(-193.048 -325.008)" fill="#989898"/>
    <path id="checklist_major_monotone" d="M11.939,9.277,8.831,12.384l-1.22-1.22A.944.944,0,0,0,6.277,12.5l1.888,1.888a.941.941,0,0,0,1.335,0l3.775-3.775a.944.944,0,1,0-1.335-1.335" transform="translate(-0.5 -1.831)" fill="#989898"/>
  </g>
</svg>
