<svg xmlns="http://www.w3.org/2000/svg" width="21.578" height="23.561" viewBox="0 0 21.578 23.561">
  <g id="Group_4510" data-name="Group 4510" transform="translate(-143.528 -718)">
    <path id="Path_143" data-name="Path 143" d="M22.737,13.626c.7-5.911-.337-9.643-2.213-11.331h0C17.5-.589,7.277-1.015,3.656,2.423,2.029,4.105,1.457,6.574,1.394,9.63s-.137,8.784,5.2,10.338h0l0,2.373s-.036.961.578,1.154c.7.228,1.02-.219,3.2-2.828a19.988,19.988,0,0,0,6.777-.515c.738-.247,4.911-.8,5.586-6.526Z" transform="translate(142.148 718.013)" fill="#8e24aa"/>
    <path id="Path_144" data-name="Path 144" d="M12.216,4.3a.3.3,0,0,0,0,.593c2.93.023,5.343,2.065,5.369,5.81a.287.287,0,1,0,.574,0h0c-.031-4.036-2.666-6.376-5.942-6.4Z" transform="translate(141.946 717.931)" fill="#fff"/>
    <path id="Path_145" data-name="Path 145" d="M16.08,10.11a.287.287,0,1,0,.574.014,3.973,3.973,0,0,0-3.9-4.252.3.3,0,0,0-.04.593A3.386,3.386,0,0,1,16.08,10.11Z" transform="translate(141.936 717.9)" fill="#fff"/>
    <path id="Path_146" data-name="Path 146" d="M15.343,12.625a.906.906,0,0,0-1.182.17l-.427.552a.763.763,0,0,1-.622.243A5.693,5.693,0,0,1,9.366,9.715.825.825,0,0,1,9.6,9.071l.534-.441A.983.983,0,0,0,10.3,7.407,12.746,12.746,0,0,0,8.836,5.3a.79.79,0,0,0-1.061-.179H7.766c-.848.5-1.777,1.425-1.48,2.381.507,1.008,1.439,4.222,4.409,6.651a16.954,16.954,0,0,0,4.542,2.6l.009.014c.924.308,1.822-.657,2.3-1.531v-.007a.841.841,0,0,0-.169-1.085,11.563,11.563,0,0,0-2.036-1.512Z" transform="translate(142.055 717.917)" fill="#fff"/>
    <path id="Path_147" data-name="Path 147" d="M13.164,8.092c.943.055,1.4.547,1.449,1.559a.287.287,0,1,0,.574-.027A1.969,1.969,0,0,0,13.2,7.5.3.3,0,0,0,13.164,8.092Z" transform="translate(141.927 717.869)" fill="#fff"/>
  </g>
</svg>
