<svg id="wechat" xmlns="http://www.w3.org/2000/svg" width="28.262" height="23.551" viewBox="0 0 28.262 23.551">
  <path id="Path_148" data-name="Path 148" d="M20.169,48.958c-1.315-3.763-5.28-6.291-9.866-6.291C4.622,42.667,0,46.628,0,51.5a8.311,8.311,0,0,0,3.634,6.724L2.418,60.655a.589.589,0,0,0,.824.775l3.116-1.782a11.733,11.733,0,0,0,2.613.6.589.589,0,0,0,.641-.719,6.829,6.829,0,0,1-.191-1.552c0-4.544,4.49-8.243,10.009-8.243l.173.008a.622.622,0,0,0,.488-.244A.589.589,0,0,0,20.169,48.958Z" transform="translate(0 -42.667)" fill="#4caf50"/>
  <g id="Group_3751" data-name="Group 3751" transform="translate(4.71 3.533)">
    <path id="Path_149" data-name="Path 149" d="M87.1,106.667a1.766,1.766,0,1,0,1.766,1.766A1.766,1.766,0,0,0,87.1,106.667Z" transform="translate(-85.333 -106.667)" fill="#fff"/>
    <path id="Path_150" data-name="Path 150" d="M215.1,106.667a1.766,1.766,0,1,0,1.766,1.766A1.766,1.766,0,0,0,215.1,106.667Z" transform="translate(-206.268 -106.667)" fill="#fff"/>
  </g>
  <path id="Path_151" data-name="Path 151" d="M209.663,199.065c0-3.9-3.961-7.065-8.832-7.065S192,195.169,192,199.065s3.961,7.065,8.832,7.065a10.872,10.872,0,0,0,2.708-.344l2.919,1.459a.589.589,0,0,0,.81-.745l-.8-2A6.64,6.64,0,0,0,209.663,199.065Z" transform="translate(-181.402 -183.757)" fill="#4caf50"/>
  <g id="Group_3752" data-name="Group 3752" transform="translate(15.308 11.776)">
    <path id="Path_152" data-name="Path 152" d="M278.512,256a1.178,1.178,0,1,0,1.178,1.178A1.178,1.178,0,0,0,278.512,256Z" transform="translate(-277.334 -256)" fill="#fff"/>
    <path id="Path_153" data-name="Path 153" d="M385.178,256a1.178,1.178,0,1,0,1.178,1.178A1.178,1.178,0,0,0,385.178,256Z" transform="translate(-378.112 -256)" fill="#fff"/>
  </g>
</svg>
