<svg id="whatsapp" xmlns="http://www.w3.org/2000/svg" width="22.482" height="22.482" viewBox="0 0 22.482 22.482">
  <path id="Path_154" data-name="Path 154" d="M0,22.482l1.933-5.8A11.046,11.046,0,1,1,6.3,20.826Z" fill="#7ad06d"/>
  <path id="Path_155" data-name="Path 155" d="M25.832,20.848a8,8,0,0,0-2.391-2.066c-.426-.243-.939-.27-1.182.163a9.743,9.743,0,0,1-.767.838,1.429,1.429,0,0,1-2.032-.2l-1.543-1.543-1.543-1.543a1.429,1.429,0,0,1-.2-2.032,9.744,9.744,0,0,1,.838-.767c.433-.243.405-.756.163-1.182a8,8,0,0,0-2.066-2.391,1.057,1.057,0,0,0-1.242.187l-.681.681c-2.162,2.162-1.1,4.6,1.064,6.764l1.976,1.976L18.2,21.707c2.162,2.162,4.6,3.226,6.764,1.064l.681-.681A1.057,1.057,0,0,0,25.832,20.848Z" transform="translate(-7.349 -6.124)" fill="#fff"/>
</svg>
